<svg xmlns="http://www.w3.org/2000/svg" viewBox="0 0 512 512"><path d="M256 0c-74.4 0-135 60.6-135 135s60.6 135 135 135 135-60.6 135-135S330.4 0 256 0zM256 240c-57.9 0-105-47.1-105-105 0-57.9 47.1-105 105-105 57.9 0 105 47.1 105 105C361 192.9 313.9 240 256 240z"/><path d="M424 358.2C387 320.7 338 300 286 300h-60c-52 0-101 20.7-138 58.2C51.3 395.5 31 444.8 31 497c0 8.3 6.7 15 15 15h420c8.3 0 15-6.7 15-15C481 444.8 460.7 395.5 424 358.2zM61.7 482c7.5-85.1 78.4-152 164.3-152h60c86 0 156.8 66.9 164.3 152H61.7z"/></svg>
